<svg xmlns="http://www.w3.org/2000/svg" viewBox="0 0 1238.97 264.73"><defs><style>.cls-1{fill:#0f0f0f;}</style></defs><title>Asset 1</title><g id="Layer_2" data-name="Layer 2"><g id="Layer_1-2" data-name="Layer 1"><path class="cls-1" d="M56.58,264.49C18.86,264.49,0,244.12,0,203.76v-72C0,91.39,18.86,71,56.58,71h62.25V37.6L147.5.05V264.49ZM118.83,100.4H57.72c-19.62,0-29.47,10.6-29.47,32.44V203c0,21.51,9.81,32.45,29.43,32.45h61.11Z"/><path class="cls-1" d="M223.51,264.59c-37.72,0-56.58-20.37-56.58-60.74v-72c0-40.36,18.86-60.73,56.58-60.73h34.33c38.1,0,57,20.37,57,60.73v47.91H194.47V203.1c0,21.5,9.8,32.44,29,32.44h91.29l-18.75,29Zm64.13-133.54c0-21.51-9.81-32.45-29.42-32.45H223.51c-19.24,0-29,10.94-29,32.45v23.76h93.17Z"/><path class="cls-1" d="M540.25,264.73c-50.17,0-62.62-16.22-62.62-65.64V136.85c0-51.68,15.09-65.64,62.62-65.64h27.2c49.8,0,62.62,16.6,62.62,65.64v62.24c0,43.76-12.45,65.64-51.68,65.64ZM601.78,132c0-20-6.79-31.31-24.52-31.31H530.11c-16.22,0-24.15,8.67-24.15,26.78v77c0,19.61,6.42,31.31,24.15,31.31h47.14c16.22,0,24.52-9.06,24.52-26.79Z"/><path class="cls-1" d="M678.31,263.88l-.4-131.68c0-21.88,9.81-32.44,29.42-32.44h61.12V70.34h-62.2c-37.72,0-56.58,20.37-56.58,60.73l-.12,132.81Z"/><path class="cls-1" d="M1148.83,264.45l-.4-131.67c0-21.88,9.81-32.45,29.42-32.45H1239V70.91h-62.25c-37.72,0-56.58,20.37-56.58,60.73L1120,264.45Z"/><polygon class="cls-1" points="472.7 71.07 440.33 71.07 395.27 142.86 349.65 71.07 318.79 71.07 379.56 167.89 318.79 264.71 349.65 264.71 395.27 192.92 440.33 264.71 472.7 264.71 411.18 167.89 472.7 71.07"/><path class="cls-1" d="M1009.3,264.44c-37.72,0-56.58-20.37-56.58-60.73V131.65c0-40.36,18.86-60.73,56.58-60.73h34.33c38.1,0,57,20.37,57,60.73v47.91H980.25V203c0,21.5,9.81,32.44,29,32.44h91.29v29.05Zm64.13-133.54c0-21.5-9.81-32.44-29.42-32.44H1009.3c-19.24,0-29,10.94-29,32.44v23.77h93.18Z"/><path class="cls-1" d="M842.37,264.44c-37.72,0-56.58-20.37-56.58-60.73V131.65c0-40.36,18.86-60.73,56.58-60.73h62.25V37.55L933.25,0V264.44Zm62.25-164.1H843.5c-19.61,0-29.42,10.57-29.42,32.45V203c0,21.5,9.81,32.44,29.42,32.44h61.12Z"/></g></g></svg>